<?xml version="1.0" standalone="no"?>
<!DOCTYPE svg PUBLIC "-//W3C//DTD SVG 20010904//EN"
 "http://www.w3.org/TR/2001/REC-SVG-20010904/DTD/svg10.dtd">
<svg version="1.0" xmlns="http://www.w3.org/2000/svg"
 width="590.000000pt" height="590.000000pt" viewBox="0 0 590.000000 590.000000"
 preserveAspectRatio="xMidYMid meet">
<metadata>
Created by potrace 1.11, written by Peter Selinger 2001-2013
</metadata>
<g transform="translate(0.000000,590.000000) scale(0.100000,-0.100000)"
fill="#000000" stroke="none">
<path d="M4035 5835 c-188 -49 -815 -211 -895 -231 -8 -2 -132 -33 -275 -69
-143 -37 -267 -68 -275 -70 -8 -2 -42 -10 -75 -18 -33 -9 -73 -19 -90 -22 -39
-8 -60 -13 -60 -15 0 -1 -9 -3 -19 -5 -11 -2 -31 -7 -45 -11 -14 -4 -30 -8
-36 -9 -5 -1 -12 -3 -15 -4 -3 -2 -13 -4 -24 -6 -10 -2 -41 -9 -70 -16 -28 -7
-53 -13 -56 -14 -11 -1 -162 -49 -325 -103 -93 -31 -184 -60 -200 -66 -22 -7
-45 -32 -85 -94 -30 -47 -61 -91 -68 -99 -7 -7 -10 -13 -6 -13 4 0 -1 -7 -12
-16 -10 -8 -13 -12 -5 -8 8 4 1 -13 -16 -37 -34 -50 -63 -111 -63 -131 0 -10
-3 -10 -10 2 -8 11 -9 7 -4 -14 5 -21 4 -27 -5 -21 -8 4 -12 2 -10 -6 4 -36
-2 -60 -13 -53 -7 4 -10 4 -6 -1 4 -4 2 -15 -5 -23 -10 -13 -9 -14 3 -7 12 7
13 6 3 -7 -7 -8 -10 -18 -6 -21 3 -4 0 -7 -7 -7 -7 0 -10 -3 -7 -7 4 -3 0 -17
-9 -31 -11 -17 -12 -22 -3 -16 11 6 12 5 2 -8 -7 -8 -10 -18 -6 -21 3 -4 2 -7
-4 -7 -6 0 -14 -7 -17 -16 -3 -9 -2 -12 4 -9 6 4 1 -10 -10 -30 -11 -20 -16
-34 -11 -31 5 3 1 -11 -9 -31 -10 -21 -21 -53 -25 -70 -3 -18 -11 -33 -15 -33
-5 0 -7 -7 -4 -15 4 -8 1 -15 -6 -15 -6 0 -8 -4 -5 -10 3 -5 1 -10 -4 -10 -6
0 -10 -3 -9 -7 3 -16 -15 -63 -24 -63 -5 0 -6 -6 -1 -12 19 -31 20 -50 38
-888 12 -528 16 -736 20 -865 2 -77 7 -259 10 -403 3 -145 7 -268 10 -272 3
-5 8 -48 11 -97 10 -149 10 -159 15 -169 3 -5 5 -30 4 -56 0 -25 3 -44 6 -42
4 2 10 -3 13 -12 3 -8 2 -12 -4 -9 -18 11 -11 -25 9 -46 11 -12 17 -32 16 -50
-1 -16 1 -32 6 -35 10 -6 2 -24 -11 -24 -4 0 -7 20 -5 45 1 32 -2 49 -14 57
-14 11 -14 11 -5 -2 6 -8 10 -38 8 -66 -1 -40 2 -51 14 -50 16 1 27 -40 13
-48 -4 -3 -7 6 -5 20 1 14 -1 23 -4 19 -9 -9 -10 -65 -1 -59 4 2 10 -3 13 -12
3 -8 2 -12 -4 -9 -13 8 -13 -1 1 -27 7 -12 7 -18 1 -14 -6 3 -9 0 -8 -6 6 -29
19 -48 33 -48 9 0 11 -5 7 -13 -6 -9 -4 -9 7 -1 11 9 19 6 39 -13 l25 -25 -30
17 -30 17 25 -20 c13 -11 28 -18 32 -16 4 3 24 -12 45 -33 20 -21 31 -29 23
-18 -7 11 -1 7 14 -8 14 -15 26 -24 26 -20 1 4 10 -3 20 -16 11 -13 20 -21 20
-17 0 3 8 -1 18 -8 15 -13 187 -147 343 -268 46 -36 350 -277 379 -301 49 -40
231 -184 248 -196 12 -8 18 -19 15 -24 -3 -6 -2 -7 3 -4 5 3 20 -3 33 -12 24
-18 24 -18 205 105 100 67 251 170 336 228 85 58 191 129 235 159 97 66 757
514 1020 692 293 198 379 257 387 264 9 8 15 58 23 196 3 55 8 134 11 175 12
173 13 200 19 295 3 55 8 125 10 155 21 299 24 439 12 595 -12 145 -16 206
-22 277 -3 37 -12 99 -20 137 -8 39 -17 85 -20 103 -3 18 -8 41 -11 50 -3 9
-7 27 -9 40 -3 13 -7 34 -10 48 -3 14 -7 36 -10 50 -18 97 -65 230 -290 820
l-253 665 99 47 c83 39 99 51 99 70 1 27 9 90 19 137 6 32 12 36 109 75 56 23
104 44 106 47 6 6 -48 215 -76 291 l-20 56 -95 46 c-52 25 -100 46 -106 45 -7
0 -120 -29 -252 -64z"/>
</g>
</svg>
